<mxfile host="Electron" agent="Mozilla/5.0 (Windows NT 10.0; Win64; x64) AppleWebKit/537.36 (KHTML, like Gecko) draw.io/24.7.8 Chrome/128.0.6613.36 Electron/32.0.1 Safari/537.36" version="24.7.8">
  <diagram name="Seite-1" id="3rPhxilipl-q10exPGNB">
    <mxGraphModel dx="1461" dy="823" grid="1" gridSize="10" guides="1" tooltips="1" connect="1" arrows="1" fold="1" page="1" pageScale="1" pageWidth="827" pageHeight="1169" math="0" shadow="0">
      <root>
        <mxCell id="0" />
        <mxCell id="1" parent="0" />
        <mxCell id="zIBkcx2wxeGUyGdtwQ6N-33" style="edgeStyle=orthogonalEdgeStyle;rounded=0;orthogonalLoop=1;jettySize=auto;html=1;entryX=0;entryY=0.5;entryDx=0;entryDy=0;" parent="1" source="zIBkcx2wxeGUyGdtwQ6N-1" target="zIBkcx2wxeGUyGdtwQ6N-4" edge="1">
          <mxGeometry relative="1" as="geometry" />
        </mxCell>
        <mxCell id="zIBkcx2wxeGUyGdtwQ6N-1" value="" style="ellipse;whiteSpace=wrap;html=1;aspect=fixed;fillColor=#000000;" parent="1" vertex="1">
          <mxGeometry x="40" y="480" width="40" height="40" as="geometry" />
        </mxCell>
        <mxCell id="zIBkcx2wxeGUyGdtwQ6N-2" value="" style="ellipse;whiteSpace=wrap;html=1;aspect=fixed;" parent="1" vertex="1">
          <mxGeometry x="720" y="480" width="40" height="40" as="geometry" />
        </mxCell>
        <mxCell id="zIBkcx2wxeGUyGdtwQ6N-3" value="" style="ellipse;whiteSpace=wrap;html=1;aspect=fixed;fillColor=#000000;" parent="1" vertex="1">
          <mxGeometry x="726.41" y="486.40999999999997" width="27.18" height="27.18" as="geometry" />
        </mxCell>
        <mxCell id="zIBkcx2wxeGUyGdtwQ6N-8" style="edgeStyle=orthogonalEdgeStyle;rounded=0;orthogonalLoop=1;jettySize=auto;html=1;entryX=0;entryY=0.5;entryDx=0;entryDy=0;" parent="1" source="zIBkcx2wxeGUyGdtwQ6N-4" target="zIBkcx2wxeGUyGdtwQ6N-7" edge="1">
          <mxGeometry relative="1" as="geometry" />
        </mxCell>
        <mxCell id="zIBkcx2wxeGUyGdtwQ6N-4" value="NetworkDialogStart" style="rounded=1;whiteSpace=wrap;html=1;" parent="1" vertex="1">
          <mxGeometry x="110" y="470" width="120" height="60" as="geometry" />
        </mxCell>
        <mxCell id="zIBkcx2wxeGUyGdtwQ6N-19" style="edgeStyle=orthogonalEdgeStyle;rounded=0;orthogonalLoop=1;jettySize=auto;html=1;entryX=0;entryY=0.5;entryDx=0;entryDy=0;" parent="1" source="zIBkcx2wxeGUyGdtwQ6N-5" target="zIBkcx2wxeGUyGdtwQ6N-17" edge="1">
          <mxGeometry relative="1" as="geometry" />
        </mxCell>
        <mxCell id="zIBkcx2wxeGUyGdtwQ6N-5" value="NetworkDialogClient" style="rounded=1;whiteSpace=wrap;html=1;" parent="1" vertex="1">
          <mxGeometry x="420" y="420" width="120" height="60" as="geometry" />
        </mxCell>
        <mxCell id="zIBkcx2wxeGUyGdtwQ6N-20" style="edgeStyle=orthogonalEdgeStyle;rounded=0;orthogonalLoop=1;jettySize=auto;html=1;entryX=0;entryY=0.5;entryDx=0;entryDy=0;" parent="1" source="zIBkcx2wxeGUyGdtwQ6N-6" target="zIBkcx2wxeGUyGdtwQ6N-18" edge="1">
          <mxGeometry relative="1" as="geometry" />
        </mxCell>
        <mxCell id="zIBkcx2wxeGUyGdtwQ6N-6" value="NetworkDialogHost" style="rounded=1;whiteSpace=wrap;html=1;" parent="1" vertex="1">
          <mxGeometry x="420" y="530" width="120" height="60" as="geometry" />
        </mxCell>
        <mxCell id="zIBkcx2wxeGUyGdtwQ6N-9" style="edgeStyle=orthogonalEdgeStyle;rounded=0;orthogonalLoop=1;jettySize=auto;html=1;exitX=0.5;exitY=0;exitDx=0;exitDy=0;entryX=0;entryY=0.5;entryDx=0;entryDy=0;" parent="1" source="zIBkcx2wxeGUyGdtwQ6N-7" target="zIBkcx2wxeGUyGdtwQ6N-5" edge="1">
          <mxGeometry relative="1" as="geometry" />
        </mxCell>
        <mxCell id="zIBkcx2wxeGUyGdtwQ6N-14" style="edgeStyle=orthogonalEdgeStyle;rounded=0;orthogonalLoop=1;jettySize=auto;html=1;exitX=0.5;exitY=1;exitDx=0;exitDy=0;entryX=0;entryY=0.5;entryDx=0;entryDy=0;" parent="1" source="zIBkcx2wxeGUyGdtwQ6N-7" target="zIBkcx2wxeGUyGdtwQ6N-6" edge="1">
          <mxGeometry relative="1" as="geometry" />
        </mxCell>
        <mxCell id="zIBkcx2wxeGUyGdtwQ6N-7" value="" style="rhombus;whiteSpace=wrap;html=1;" parent="1" vertex="1">
          <mxGeometry x="320" y="485" width="60" height="30" as="geometry" />
        </mxCell>
        <mxCell id="zIBkcx2wxeGUyGdtwQ6N-15" value="[Spieler ist nicht Host]" style="text;html=1;align=center;verticalAlign=middle;resizable=0;points=[];autosize=1;strokeColor=none;fillColor=none;" parent="1" vertex="1">
          <mxGeometry x="270" y="418" width="140" height="30" as="geometry" />
        </mxCell>
        <mxCell id="zIBkcx2wxeGUyGdtwQ6N-16" value="[Spieler ist Host]" style="text;html=1;align=center;verticalAlign=middle;resizable=0;points=[];autosize=1;strokeColor=none;fillColor=none;" parent="1" vertex="1">
          <mxGeometry x="304" y="560" width="110" height="30" as="geometry" />
        </mxCell>
        <mxCell id="zIBkcx2wxeGUyGdtwQ6N-22" style="edgeStyle=orthogonalEdgeStyle;rounded=0;orthogonalLoop=1;jettySize=auto;html=1;exitX=0.5;exitY=0;exitDx=0;exitDy=0;entryX=0.75;entryY=0;entryDx=0;entryDy=0;" parent="1" source="zIBkcx2wxeGUyGdtwQ6N-17" target="zIBkcx2wxeGUyGdtwQ6N-5" edge="1">
          <mxGeometry relative="1" as="geometry">
            <Array as="points">
              <mxPoint x="650" y="400" />
              <mxPoint x="510" y="400" />
            </Array>
          </mxGeometry>
        </mxCell>
        <mxCell id="zIBkcx2wxeGUyGdtwQ6N-23" style="edgeStyle=orthogonalEdgeStyle;rounded=0;orthogonalLoop=1;jettySize=auto;html=1;entryX=0.5;entryY=0;entryDx=0;entryDy=0;" parent="1" source="zIBkcx2wxeGUyGdtwQ6N-17" target="zIBkcx2wxeGUyGdtwQ6N-2" edge="1">
          <mxGeometry relative="1" as="geometry" />
        </mxCell>
        <mxCell id="zIBkcx2wxeGUyGdtwQ6N-17" value="" style="rhombus;whiteSpace=wrap;html=1;" parent="1" vertex="1">
          <mxGeometry x="620" y="435" width="60" height="30" as="geometry" />
        </mxCell>
        <mxCell id="zIBkcx2wxeGUyGdtwQ6N-21" style="edgeStyle=orthogonalEdgeStyle;rounded=0;orthogonalLoop=1;jettySize=auto;html=1;exitX=0.5;exitY=1;exitDx=0;exitDy=0;entryX=0.75;entryY=1;entryDx=0;entryDy=0;" parent="1" source="zIBkcx2wxeGUyGdtwQ6N-18" target="zIBkcx2wxeGUyGdtwQ6N-6" edge="1">
          <mxGeometry relative="1" as="geometry" />
        </mxCell>
        <mxCell id="zIBkcx2wxeGUyGdtwQ6N-24" style="edgeStyle=orthogonalEdgeStyle;rounded=0;orthogonalLoop=1;jettySize=auto;html=1;entryX=0.5;entryY=1;entryDx=0;entryDy=0;" parent="1" source="zIBkcx2wxeGUyGdtwQ6N-18" target="zIBkcx2wxeGUyGdtwQ6N-2" edge="1">
          <mxGeometry relative="1" as="geometry" />
        </mxCell>
        <mxCell id="zIBkcx2wxeGUyGdtwQ6N-18" value="" style="rhombus;whiteSpace=wrap;html=1;" parent="1" vertex="1">
          <mxGeometry x="620" y="545" width="60" height="30" as="geometry" />
        </mxCell>
        <mxCell id="zIBkcx2wxeGUyGdtwQ6N-25" value="Host wählt Server&lt;div&gt;erstellen&lt;/div&gt;" style="text;html=1;align=center;verticalAlign=middle;resizable=0;points=[];autosize=1;strokeColor=none;fillColor=none;" parent="1" vertex="1">
          <mxGeometry x="520" y="520" width="120" height="40" as="geometry" />
        </mxCell>
        <mxCell id="zIBkcx2wxeGUyGdtwQ6N-26" value="Spieler wählt&amp;nbsp;&lt;div&gt;Server beitreten&lt;/div&gt;" style="text;html=1;align=center;verticalAlign=middle;resizable=0;points=[];autosize=1;strokeColor=none;fillColor=none;" parent="1" vertex="1">
          <mxGeometry x="530" y="450" width="110" height="40" as="geometry" />
        </mxCell>
        <mxCell id="zIBkcx2wxeGUyGdtwQ6N-28" value="[IP/ Port nicht valide]" style="text;html=1;align=center;verticalAlign=middle;resizable=0;points=[];autosize=1;strokeColor=none;fillColor=none;" parent="1" vertex="1">
          <mxGeometry x="495" y="358" width="130" height="30" as="geometry" />
        </mxCell>
        <mxCell id="zIBkcx2wxeGUyGdtwQ6N-29" value="[Port nicht valide]" style="text;html=1;align=center;verticalAlign=middle;resizable=0;points=[];autosize=1;strokeColor=none;fillColor=none;" parent="1" vertex="1">
          <mxGeometry x="530" y="610" width="120" height="30" as="geometry" />
        </mxCell>
        <mxCell id="zIBkcx2wxeGUyGdtwQ6N-30" value="sonst" style="text;html=1;align=center;verticalAlign=middle;resizable=0;points=[];autosize=1;strokeColor=none;fillColor=none;" parent="1" vertex="1">
          <mxGeometry x="675" y="528" width="50" height="30" as="geometry" />
        </mxCell>
        <mxCell id="zIBkcx2wxeGUyGdtwQ6N-32" value="sonst" style="text;html=1;align=center;verticalAlign=middle;resizable=0;points=[];autosize=1;strokeColor=none;fillColor=none;" parent="1" vertex="1">
          <mxGeometry x="675" y="448" width="50" height="30" as="geometry" />
        </mxCell>
        <mxCell id="CRrxGlU3tbu3WneFUTWt-1" value="NetworkDialog" style="shape=umlFrame;whiteSpace=wrap;html=1;pointerEvents=0;recursiveResize=0;container=1;collapsible=0;width=160;" parent="1" vertex="1">
          <mxGeometry x="20" y="340" width="800" height="310" as="geometry" />
        </mxCell>
      </root>
    </mxGraphModel>
  </diagram>
</mxfile>
